<svg width="14" height="12" viewBox="0 0 14 12" fill="none" xmlns="http://www.w3.org/2000/svg">
<g clip-path="url(#clip0_6044_3663)">
<path fill-rule="evenodd" clip-rule="evenodd" d="M2.5256 0.058937L0.0103408 5.34224C0.000769509 5.36189 -0.00226357 5.38409 0.00168511 5.40558C0.00563379 5.42708 0.0163571 5.44675 0.0322868 5.46172L6.82539 11.9712C6.84469 11.9897 6.87039 12 6.89712 12C6.92386 12 6.94956 11.9897 6.96885 11.9712L13.762 5.46213C13.7779 5.44716 13.7886 5.42749 13.7926 5.40599C13.7965 5.38449 13.7935 5.3623 13.7839 5.34264L11.2686 0.0593434C11.2605 0.0415998 11.2475 0.0265688 11.231 0.0160467C11.2146 0.00552457 11.1955 -4.35258e-05 11.176 7.86495e-06H2.61907C2.59947 -0.000236046 2.58021 0.00519792 2.56362 0.0156543C2.54704 0.0261106 2.53383 0.0411426 2.5256 0.058937Z" fill="#50AF95"/>
<path fill-rule="evenodd" clip-rule="evenodd" d="M7.7701 5.88482C7.72133 5.88847 7.46936 5.90351 6.9073 5.90351C6.46025 5.90351 6.14284 5.8901 6.03149 5.88482C4.30385 5.80882 3.01431 5.50808 3.01431 5.148C3.01431 4.78792 4.30385 4.48759 6.03149 4.41037V5.58529C6.14447 5.59342 6.46797 5.61252 6.91502 5.61252C7.45147 5.61252 7.72011 5.59017 7.76847 5.5857V4.41118C9.49245 4.48799 10.7791 4.78873 10.7791 5.148C10.7791 5.50726 9.49286 5.808 7.76847 5.88441L7.7701 5.88482ZM7.7701 4.28967V3.23829H10.176V1.63501H3.62555V3.23829H6.03108V4.28926C4.07585 4.37907 2.60547 4.76638 2.60547 5.2305C2.60547 5.69462 4.07585 6.08152 6.03108 6.17174V9.54086H7.76969V6.17052C9.72045 6.0807 11.1884 5.6938 11.1884 5.23009C11.1884 4.76638 9.72167 4.37948 7.76969 4.28926L7.7701 4.28967Z" fill="white"/>
</g>
<defs>
<clipPath id="clip0_6044_3663">
<rect width="13.7947" height="12" fill="white"/>
</clipPath>
</defs>
</svg>
