<svg width="16" height="20" viewBox="0 0 16 20" fill="none" xmlns="http://www.w3.org/2000/svg">
<path fill-rule="evenodd" clip-rule="evenodd" d="M8.00187 2.41675C6.1149 2.41675 4.58521 3.94644 4.58521 5.83342C4.58521 7.72039 6.1149 9.25008 8.00187 9.25008C9.88885 9.25008 11.4185 7.72039 11.4185 5.83342C11.4185 3.94644 9.88885 2.41675 8.00187 2.41675ZM3.08521 5.83342C3.08521 3.11801 5.28647 0.916748 8.00187 0.916748C10.7173 0.916748 12.9185 3.11801 12.9185 5.83342C12.9185 8.54882 10.7173 10.7501 8.00187 10.7501C5.28647 10.7501 3.08521 8.54882 3.08521 5.83342Z" fill="#0F172A"/>
<path fill-rule="evenodd" clip-rule="evenodd" d="M0.0932617 18.3333C0.0932617 14.5575 3.78872 11.75 8.00159 11.75C12.2145 11.75 15.9099 14.5575 15.9099 18.3333C15.9099 18.7475 15.5741 19.0833 15.1599 19.0833C14.7457 19.0833 14.4099 18.7475 14.4099 18.3333C14.4099 15.6592 11.6887 13.25 8.00159 13.25C4.31447 13.25 1.59326 15.6592 1.59326 18.3333C1.59326 18.7475 1.25748 19.0833 0.843262 19.0833C0.429048 19.0833 0.0932617 18.7475 0.0932617 18.3333Z" fill="#0F172A"/>
</svg>
